<?xml version="1.0" encoding="UTF-8"?>
<svg width="609px" height="120px" viewBox="0 0 609 120" version="1.1" xmlns="http://www.w3.org/2000/svg" xmlns:xlink="http://www.w3.org/1999/xlink">
    <!-- Generator: Sketch 57.1 (83088) - https://sketch.com -->
    <title>Group 3</title>
    <desc>Created with Sketch.</desc>
    <g id="Page-1" stroke="none" stroke-width="1" fill="none" fill-rule="evenodd">
        <g id="Artboard" transform="translate(-58.000000, -90.000000)">
            <g id="Group-3" transform="translate(58.000000, 90.000000)">
                <g id="Group-2">
                    <path d="M30.7,27 L42.3,27 C47.1048773,27 51,30.8028825 51,35.4939759 L51,65.5060241 C51,70.1971175 47.1048773,74 42.3,74 L30.7,74 C25.8951227,74 22,70.1971175 22,65.5060241 L22,35.4939759 C22,30.8028825 25.8951227,27 30.7,27 Z" id="Rectangle" fill="#C7E937"></path>
                    <path d="M22.2857143,0 L49.7142857,0 C60.9177764,0 70,9.17816263 70,20.5 C70,31.8218374 60.9177764,41 49.7142857,41 L22.2857143,41 C11.0822236,41 2,31.8218374 2,20.5 C2,9.17816263 11.0822236,0 22.2857143,0 Z" id="Rectangle" fill="#85C93A"></path>
                    <path d="M21,11 C22.6568542,11 24,12.2436535 24,13.7777778 L24,18.2222222 C24,19.7563465 22.6568542,21 21,21 C19.3431458,21 18,19.7563465 18,18.2222222 L18,13.7777778 C18,12.2436535 19.3431458,11 21,11 Z" id="Rectangle" fill="#000000"></path>
                    <path d="M51,11 C52.6568542,11 54,12.2436535 54,13.7777778 L54,18.2222222 C54,19.7563465 52.6568542,21 51,21 C49.3431458,21 48,19.7563465 48,18.2222222 L48,13.7777778 C48,12.2436535 49.3431458,11 51,11 Z" id="Rectangle" fill="#000000"></path>
                    <path d="M38,33 L38,45.617 L36.2857143,44.4704196 L34,46 L34,33 L38,33 Z" id="Rectangle-2" fill="#F63A3A"></path>
                    <g id="Group" transform="translate(0.000000, 55.000000)">
                        <polygon id="Rectangle" fill="#915F33" points="0 7.1942452e-14 23.8110236 1.33018596e-14 23.8110236 54 0 54"></polygon>
                        <polygon id="Rectangle" fill="#BA7A41" transform="translate(47.618644, 27.000000) scale(-1, 1) translate(-47.618644, -27.000000) " points="23.2440945 1.37667655e-13 71.993194 1.35981504e-13 71.993194 54 23.2440945 54"></polygon>
                        <rect id="Rectangle" fill="#2B1C0F" x="33.4488189" y="43.5399367" width="28.3464567" height="5.74468085"></rect>
                    </g>
                </g>
                <path d="M98.8,81.75 C105.8,81.75 108.35,87.2 108.35,95.45 C108.35,103.45 105.05,109.2 98.2,109.2 C95.3,109.2 93,108.2 91.2,106.2 L91.2,118.75 L87,119.25 L87,82.3 L90.6,82.3 L90.95,86 C92.85,83.3 95.65,81.75 98.8,81.75 Z M97.8,85.15 C94.9,85.15 92.65,87.25 91.2,89.35 L91.2,102.4 C92.6,104.45 94.75,105.7 97.25,105.7 C101.6,105.7 103.8,102.45 103.8,95.45 C103.8,88.6 101.95,85.15 97.8,85.15 Z M138.319119,82.3 L129.119119,108.8 C127.269119,114.2 124.319119,118.5 117.319119,119.25 L116.719119,115.9 C122.119119,114.95 123.719119,112.7 125.069119,108.65 L123.669119,108.65 L114.519119,82.3 L118.969119,82.3 L126.519119,105.45 L133.969119,82.3 L138.319119,82.3 Z M166.788238,107.3 C164.938238,108.5 162.188238,109.2 159.688238,109.2 C154.038237,109.2 150.838237,105.9 150.838237,101.3 L150.838237,85.6 L144.788238,85.6 L144.788238,82.3 L150.838237,82.3 L150.838237,76.35 L155.038237,75.85 L155.038237,82.3 L164.188238,82.3 L163.638238,85.6 L155.038237,85.6 L155.038237,101.25 C155.038237,104.15 156.488237,105.7 160.088237,105.7 C162.038238,105.7 163.738237,105.2 165.138238,104.45 L166.788238,107.3 Z M179.457356,71.3 L179.457356,85.95 C181.557356,83.2 184.757356,81.75 187.907356,81.75 C193.057356,81.75 195.307356,84.65 195.307356,89.55 L195.307356,108.65 L191.107356,108.65 L191.107356,89.6 C191.107356,86.45 189.657356,85.1 186.507356,85.1 C183.557356,85.1 180.857356,87.4 179.457356,89.45 L179.457356,108.65 L175.257356,108.65 L175.257356,71.75 L179.457356,71.3 Z M214.726475,81.75 C222.126475,81.75 226.026475,87.15 226.026475,95.45 C226.026475,103.55 222.026475,109.2 214.676475,109.2 C207.276475,109.2 203.326475,103.8 203.326475,95.5 C203.326475,87.4 207.326475,81.75 214.726475,81.75 Z M214.726475,85.2 C210.176475,85.2 207.876475,88.5 207.876475,95.5 C207.876475,102.5 210.126475,105.75 214.676475,105.75 C219.226475,105.75 221.476475,102.5 221.476475,95.45 C221.476475,88.5 219.226475,85.2 214.726475,85.2 Z M234.095594,108.65 L234.095594,82.3 L237.695594,82.3 L238.045594,86 C240.145594,83.3 243.645594,81.75 246.745594,81.75 C251.895594,81.75 254.145594,84.65 254.145594,89.55 L254.145594,108.65 L249.945594,108.65 L249.945594,92.65 C249.945594,87.25 249.395594,85.1 245.445594,85.1 C242.345594,85.1 239.695594,87.4 238.295594,89.5 L238.295594,108.65 L234.095594,108.65 Z M301.933831,105.75 C305.983831,105.75 308.433831,104.1 308.433831,101.55 C308.433831,99.2 307.683831,97.95 302.083831,96.55 C296.633831,95.2 293.083831,93.55 293.083831,88.95 C293.083831,84.55 297.133831,81.75 303.083831,81.75 C307.333831,81.75 310.433831,83.05 312.683831,84.65 L310.783831,87.55 C308.833831,86.2 306.583831,85.15 303.183831,85.15 C298.983831,85.15 297.483831,86.6 297.483831,88.6 C297.483831,91 299.133831,91.8 304.433831,93.25 C309.583831,94.65 312.983831,96.45 312.983831,101.35 C312.983831,107 307.533831,109.2 301.933831,109.2 C297.133831,109.2 293.883831,107.6 291.633831,105.65 L293.983831,102.9 C296.033831,104.6 298.833831,105.75 301.933831,105.75 Z M343.30295,107.3 C341.45295,108.5 338.70295,109.2 336.20295,109.2 C330.55295,109.2 327.35295,105.9 327.35295,101.3 L327.35295,85.6 L321.30295,85.6 L321.30295,82.3 L327.35295,82.3 L327.35295,76.35 L331.55295,75.85 L331.55295,82.3 L340.70295,82.3 L340.15295,85.6 L331.55295,85.6 L331.55295,101.25 C331.55295,104.15 333.00295,105.7 336.60295,105.7 C338.55295,105.7 340.25295,105.2 341.65295,104.45 L343.30295,107.3 Z M370.672069,102.9 C370.672069,105 371.322069,105.8 372.822069,106.25 L371.772069,109.25 C369.522069,108.95 367.672069,107.9 366.972069,105.5 C365.072069,107.95 362.122069,109.2 358.722069,109.2 C353.422069,109.2 350.222069,106 350.222069,101.1 C350.222069,95.7 354.572069,92.65 362.522069,92.65 L366.422069,92.65 L366.422069,90.5 C366.422069,86.65 364.072069,85.25 360.172069,85.25 C358.422069,85.25 356.022069,85.65 353.322069,86.6 L352.172069,83.4 C355.422069,82.25 358.222069,81.75 360.822069,81.75 C367.372069,81.75 370.672069,85.05 370.672069,90.25 L370.672069,102.9 Z M359.772069,106.05 C362.372069,106.05 364.872069,104.65 366.422069,102.3 L366.422069,95.55 L362.622069,95.55 C356.822069,95.55 354.722069,97.65 354.722069,101.05 C354.722069,104.35 356.322069,106.05 359.772069,106.05 Z M398.991188,81.75 C400.441188,81.75 401.541188,82 402.691188,82.3 L402.091187,91.25 L398.691188,91.25 L398.691188,85.6 L398.441188,85.6 C394.391188,85.6 391.491188,88.5 389.791188,94.3 L389.791188,105.4 L395.141188,105.4 L395.141188,108.65 L381.441188,108.65 L381.441188,105.4 L385.591187,105.4 L385.591187,85.55 L381.441188,85.55 L381.441188,82.3 L388.741188,82.3 L389.541188,88.55 C391.541188,84.25 394.241188,81.75 398.991188,81.75 Z M431.560306,107.3 C429.710306,108.5 426.960306,109.2 424.460306,109.2 C418.810306,109.2 415.610306,105.9 415.610306,101.3 L415.610306,85.6 L409.560306,85.6 L409.560306,82.3 L415.610306,82.3 L415.610306,76.35 L419.810306,75.85 L419.810306,82.3 L428.960306,82.3 L428.410306,85.6 L419.810306,85.6 L419.810306,101.25 C419.810306,104.15 421.260306,105.7 424.860306,105.7 C426.810306,105.7 428.510306,105.2 429.910306,104.45 L431.560306,107.3 Z M443.379425,96.95 C443.579425,103.05 446.979425,105.7 451.029425,105.7 C453.729425,105.7 455.729425,104.9 458.079425,103.35 L460.029425,106.15 C457.579425,108.05 454.279425,109.2 451.029425,109.2 C443.329425,109.2 438.979425,103.7 438.979425,95.5 C438.979425,87.55 443.429425,81.75 450.429425,81.75 C457.079425,81.75 461.179425,86.7 461.179425,94.7 C461.179425,95.6 461.129425,96.4 461.079425,96.95 L443.379425,96.95 Z M450.479425,85.2 C446.579425,85.2 443.729425,87.95 443.379425,93.75 L457.079425,93.75 C456.979425,88.1 454.479425,85.2 450.479425,85.2 Z M487.248544,81.75 C488.698544,81.75 489.798544,82 490.948544,82.3 L490.348544,91.25 L486.948544,91.25 L486.948544,85.6 L486.698544,85.6 C482.648544,85.6 479.748544,88.5 478.048544,94.3 L478.048544,105.4 L483.398544,105.4 L483.398544,108.65 L469.698544,108.65 L469.698544,105.4 L473.848544,105.4 L473.848544,85.55 L469.698544,85.55 L469.698544,82.3 L476.998544,82.3 L477.798544,88.55 C479.798544,84.25 482.498544,81.75 487.248544,81.75 Z M532.786781,71.2 L532.786781,108.65 L528.586781,108.65 L528.586781,71.7 L532.786781,71.2 Z M550.336781,82.3 L538.536781,94.2 L551.736781,108.65 L546.186781,108.65 L533.236781,94.25 L544.936781,82.3 L550.336781,82.3 Z M567.7059,70 C569.5559,70 570.8059,71.25 570.8059,72.95 C570.8059,74.65 569.5559,75.9 567.7059,75.9 C565.9059,75.9 564.7059,74.65 564.7059,72.95 C564.7059,71.25 565.9059,70 567.7059,70 Z M571.0559,82.3 L571.0559,105.3 L578.4559,105.3 L578.4559,108.65 L558.7559,108.65 L558.7559,105.3 L566.8559,105.3 L566.8559,85.65 L559.0059,85.65 L559.0059,82.3 L571.0559,82.3 Z M608.075019,107.3 C606.225019,108.5 603.475019,109.2 600.975019,109.2 C595.325019,109.2 592.125019,105.9 592.125019,101.3 L592.125019,85.6 L586.075019,85.6 L586.075019,82.3 L592.125019,82.3 L592.125019,76.35 L596.325019,75.85 L596.325019,82.3 L605.475019,82.3 L604.925019,85.6 L596.325019,85.6 L596.325019,101.25 C596.325019,104.15 597.775019,105.7 601.375019,105.7 C603.325019,105.7 605.025019,105.2 606.425019,104.45 L608.075019,107.3 Z" id="pythonstarterkit" fill="#171717" fill-rule="nonzero"></path>
            </g>
        </g>
    </g>
</svg>